{"title":"Music Within.2007.XviD.Swe_Sub.avi","uid":5467864,"size":844330652,"categoryP":"video","categoryS":"movies","magnet":"?xt=urn:btih:9e2b1c4eb98fb93837788970afdd907b572f2bab&amp;dn=Music+Within.2007.XviD.Swe_Sub.avi&amp;tr=udp%3A%2F%2Ftracker.openbittorrent.com%3A80&amp;tr=udp%3A%2F%2Fopen.demonii.com%3A1337&amp;tr=udp%3A%2F%2Ftracker.coppersurfer.tk%3A6969&amp;tr=udp%3A%2F%2Fexodus.desync.com%3A6969","seeders":0,"leechers":0,"uploader":"Zen_Bud","files":-1,"time":1269711600,"description":"Experience a movie that will make you believe anyone can change the world. \n\n\n\n\n\n\nGeneral\nComplete name                    : Music Within.Swe_Sub.avi\nFormat                           : AVI\nFormat/Info                      : Audio Video Interleave\nFile size                        : 805 MiB\nDuration                         : 1h 29mn\nOverall bit rate                 : 1 255 Kbps\n\nVideo\nID                               : 0\nFormat                           : MPEG-4 Visual\nCodec ID                         : XVID\nCodec ID/Hint                    : XviD\nDuration                         : 1h 29mn\nBit rate                         : 1 114 Kbps\nWidth                            : 716 pixels\nHeight                           : 554 pixels\nDisplay aspect ratio             : 16:9\nFrame rate                       : 25.000 fps\nResolution                       : 8 bits\nColorimetry                      : 4:2:0\nScan type                        : Progressive\nBits/(Pixel*Frame)               : 0.112\nStream size                      : 715 MiB (89%)\nWriting library                  : XviD 1.1.2 (UTC 2006-11-01)\n\nAudio\nID                               : 1\nFormat                           : MPEG Audio\nFormat version                   : Version 1\nFormat profile                   : Layer 3\nMode                             : Joint stereo\nFormat_Settings_ModeExtension    : MS Stereo\nCodec ID                         : 55\nCodec ID/Hint                    : MP3\nDuration                         : 1h 29mn\nBit rate mode                    : Constant\nBit rate                         : 128 Kbps\nChannel(s)                       : 2 channels\nSampling rate                    : 48.0 KHz\nStream size                      : 82.1 MiB (10%)\nAlignment                        : Split accross interleaves\nInterleave, duration             : 24 ms (0.60 video frame)\nWriting library                  : LAME3.98\n\n","torrent":{"xt":"urn:btih:9e2b1c4eb98fb93837788970afdd907b572f2bab","amp;dn":"Music+Within.2007.XviD.Swe_Sub.avi","amp;tr":["udp%3A%2F%2Ftracker.openbittorrent.com%3A80","udp%3A%2F%2Fopen.demonii.com%3A1337","udp%3A%2F%2Ftracker.coppersurfer.tk%3A6969","udp%3A%2F%2Fexodus.desync.com%3A6969"],"infoHash":"9e2b1c4eb98fb93837788970afdd907b572f2bab","infoHashBuffer":{"type":"Buffer","data":[158,43,28,78,185,143,185,56,55,120,137,112,175,221,144,123,87,47,43,171]},"announce":[],"urlList":[]}}